<svg width="26" height="24" viewBox="0 0 26 24" fill="none" xmlns="http://www.w3.org/2000/svg">
<path fill-rule="evenodd" clip-rule="evenodd" d="M11.2199 20.0206V15.9437H13.8158C14.245 15.9437 14.593 15.5551 14.593 15.075C14.593 14.5956 14.245 14.2071 13.8158 14.2071H11.2126L11.2032 12.7725H16.3601C16.7894 12.7725 17.1373 12.384 17.1373 11.9046C17.1373 11.4245 16.7894 11.0359 16.3601 11.0359H11.1923L11.1835 9.64785H13.8158C14.245 9.64785 14.593 9.25854 14.593 8.77915C14.593 8.29905 14.245 7.91046 13.8158 7.91046H11.1726L11.1479 3.95847L21.9979 11.9394L11.2199 20.0206ZM10.5987 0.251981C10.2006 -0.0429106 9.67333 -0.0821327 9.23608 0.151021C8.79882 0.379816 8.52427 0.841765 8.52427 1.34802L8.52572 7.91046H3.74571C3.31645 7.91046 2.96853 8.29905 2.96853 8.77915C2.96853 9.25853 3.31645 9.64785 3.74571 9.64785H8.52572L8.52645 11.0359H0.777178C0.347914 11.0359 0 11.4245 0 11.9046C0 12.384 0.347914 12.7725 0.777178 12.7725H8.52645V14.2071H3.74571C3.31645 14.2071 2.96853 14.5956 2.96853 15.075C2.96853 15.5551 3.31645 15.9437 3.74571 15.9437H8.52717L8.52863 22.5396C8.52863 23.0458 8.80318 23.5034 9.24043 23.7366C9.42855 23.8383 9.63483 23.8869 9.84039 23.8869C10.1106 23.8869 10.3764 23.8034 10.603 23.6356L25.0157 13.0536C25.3585 12.8023 25.5648 12.3927 25.5648 11.9612C25.5561 11.5167 25.3542 11.1078 25.0113 10.8565L10.5987 0.251981Z" fill="#FEFEFE"/>
</svg>
