<svg width="139" height="25" viewBox="0 0 139 25" fill="none" xmlns="http://www.w3.org/2000/svg">
<path fill-rule="evenodd" clip-rule="evenodd" d="M134.099 4.15922C133.725 4.15922 133.44 4.30013 133.255 4.57904C133.086 4.83471 133.004 5.25381 133.004 5.86102C133.004 6.5031 133.064 6.90622 133.191 7.1292C133.291 7.3057 133.506 7.51634 133.964 7.51634H134.861V19.8248C134.861 20.3362 135.145 20.9463 136.5 20.9463C137.855 20.9463 138.139 20.3362 138.139 19.8248V5.58284C138.139 4.93349 137.831 4.15922 136.364 4.15922H134.099ZM124.768 17.6821H119.499V13.6626H124.541C125.083 13.6626 125.471 13.55 125.724 13.3176C125.982 13.0822 126.112 12.6958 126.112 12.17C126.112 11.6477 125.983 11.2555 125.73 11.0042C125.478 10.7565 125.078 10.6309 124.541 10.6309H119.499V7.14446H124.768C125.252 7.14446 125.639 7.03187 125.917 6.80889C126.214 6.5721 126.355 6.17262 126.339 5.62206C126.321 5.08166 126.178 4.68944 125.914 4.45556C125.656 4.22822 125.277 4.11273 124.79 4.11273H117.791C117.256 4.11273 116.858 4.21805 116.577 4.4345C116.28 4.66257 116.13 5.05624 116.13 5.60535V19.2212C116.13 19.7907 116.29 20.1909 116.608 20.4102C116.9 20.6122 117.297 20.7146 117.791 20.7146H124.768C125.394 20.7146 125.836 20.6093 126.118 20.3928C126.414 20.1647 126.565 19.7623 126.565 19.198C126.565 18.6343 126.414 18.232 126.118 18.0046C125.836 17.7874 125.394 17.6821 124.768 17.6821ZM112.625 16.6347C112.195 16.4336 111.744 16.4924 111.298 16.8229C111.103 16.9761 110.907 17.1258 110.713 17.2717C110.528 17.4097 110.318 17.5405 110.086 17.6589C109.859 17.7758 109.591 17.8753 109.289 17.956C108.989 18.0373 108.631 18.0852 108.23 18.0998L108.125 18.1012C107.392 18.1012 106.737 17.9487 106.18 17.6487C105.592 17.3335 105.093 16.9049 104.698 16.3762C104.301 15.843 103.997 15.2228 103.792 14.5313C103.588 13.8369 103.485 13.1128 103.485 12.3792C103.485 11.6434 103.578 10.925 103.76 10.2445C103.942 9.56751 104.214 8.96175 104.567 8.44387C104.918 7.93108 105.361 7.51125 105.884 7.19603C106.399 6.88515 106.999 6.72754 107.667 6.72754C108.269 6.72754 108.777 6.81833 109.178 6.99919C109.597 7.18731 109.965 7.38415 110.271 7.58607C110.592 7.79743 110.887 7.97611 111.146 8.11702C111.459 8.28698 111.81 8.29134 112.111 8.15261C112.301 8.08215 112.468 7.98265 112.608 7.85699C112.747 7.73279 112.843 7.62529 112.908 7.51198C112.94 7.44661 112.983 7.34057 113.04 7.19167C113.106 7.01735 113.121 6.80889 113.087 6.57428C113.05 6.29828 112.894 5.99321 112.609 5.64094C112.338 5.30755 111.963 4.98724 111.493 4.69017C111.027 4.396 110.469 4.14614 109.835 3.94786C109.198 3.74957 108.491 3.64861 107.735 3.64861C106.67 3.64861 105.663 3.8498 104.742 4.24565C103.82 4.64296 103.01 5.22257 102.336 5.96852C101.664 6.71229 101.123 7.63401 100.73 8.70753C100.338 9.77887 100.132 11.0136 100.116 12.3762C100.1 13.7425 100.296 14.9831 100.696 16.0624C101.097 17.1454 101.669 18.0794 102.396 18.8399C103.125 19.6011 103.999 20.1887 104.997 20.5838C105.992 20.9782 107.081 21.1787 108.233 21.1787C109.037 21.1787 109.772 21.0654 110.419 20.8424C111.062 20.6201 111.616 20.35 112.066 20.0398C112.521 19.726 112.88 19.3985 113.135 19.0651C113.4 18.7157 113.547 18.4368 113.585 18.2029C113.62 17.8993 113.567 17.6008 113.429 17.3146C113.284 17.0197 113.01 16.7887 112.625 16.6347ZM90.2201 13.9945L91.6764 9.19054L93.1327 13.9945H90.2201ZM93.3732 4.98361C93.2845 4.69453 93.0957 4.43523 92.8124 4.21442C92.5263 3.99289 92.1442 3.88031 91.6764 3.88031C91.2087 3.88031 90.8266 3.99289 90.5397 4.21442C90.2557 4.43595 90.0669 4.69453 89.9804 4.97852L85.3152 18.9198C85.0741 19.6396 85.1278 20.1698 85.4735 20.4945C85.7924 20.7945 86.2173 20.9463 86.7388 20.9463C87.2581 20.9463 87.6642 20.8141 87.9453 20.5541C88.2111 20.3071 88.4203 19.9781 88.5677 19.5771L89.5112 17.0495H93.8199L94.8542 19.6963C94.9856 20.0325 95.1774 20.3274 95.4243 20.5722C95.6771 20.8213 96.0475 20.9477 96.5255 20.9477L96.6141 20.9463C97.1356 20.9463 97.5612 20.7901 97.8808 20.4807C98.2229 20.1502 98.2912 19.6418 98.0827 18.9648L93.3732 4.98361ZM83.5001 4.11273H76.5011C75.9651 4.11273 75.5678 4.21805 75.2867 4.4345C74.9896 4.66257 74.8393 5.05624 74.8393 5.60535V19.7783C74.8393 20.0565 74.9722 20.3245 75.2351 20.5751C75.4966 20.825 75.9106 20.9463 76.5011 20.9463C77.0873 20.9463 77.5071 20.8264 77.7838 20.5795C78.0657 20.3289 78.208 20.0594 78.208 19.7783V13.6626H82.7977C83.3403 13.6626 83.7267 13.55 83.9809 13.3176C84.238 13.0822 84.3688 12.6958 84.3688 12.17C84.3688 11.6644 84.241 11.2773 83.9737 11.0049C83.6795 10.7565 83.2836 10.6309 82.7977 10.6309H78.208V7.14446H83.4768C83.9613 7.14446 84.3484 7.03187 84.6266 6.80889C84.9237 6.57138 85.0653 6.17262 85.0479 5.62206C85.0305 5.08166 84.8881 4.68944 84.623 4.45556C84.3652 4.22822 83.9875 4.11273 83.5001 4.11273ZM63.605 10.8626V7.19094H65.7717C66.0898 7.19094 66.4022 7.21782 66.6985 7.26938C66.9796 7.31878 67.2287 7.41029 67.4386 7.54176C67.642 7.6696 67.7982 7.84319 67.9173 8.07271C68.0357 8.30369 68.096 8.60511 68.096 8.96901C68.096 9.75055 67.9129 10.2619 67.552 10.4885C67.1576 10.7369 66.5591 10.8626 65.7717 10.8626H63.605ZM67.4735 13.7635C67.4938 13.7599 67.5142 13.7556 67.5345 13.7512L67.9921 13.6575C69.0446 13.4164 69.8951 12.9166 70.519 12.1721C71.1466 11.4233 71.4647 10.3382 71.4647 8.94577C71.4647 8.04148 71.342 7.26866 71.0986 6.6491C70.8502 6.02009 70.4769 5.50948 69.9874 5.13033C69.5036 4.75772 68.8964 4.49043 68.1817 4.3379C67.4829 4.18827 66.6716 4.11273 65.7717 4.11273H62.3514C61.9512 4.11273 61.6171 4.13307 61.357 4.17302C61.068 4.21878 60.8472 4.30449 60.6808 4.43668C60.508 4.57468 60.3881 4.77007 60.3235 5.01484C60.2654 5.23565 60.237 5.51238 60.237 5.86102V19.5234C60.237 19.8524 60.3598 20.172 60.6024 20.4727C60.8551 20.7872 61.283 20.9463 61.8756 20.9463C62.4596 20.9463 62.8983 20.8003 63.1809 20.5119C63.4627 20.2228 63.605 19.8902 63.605 19.5234V14.4536L69.2458 20.5352C69.5152 20.8112 69.8653 20.9514 70.2844 20.9514C70.3324 20.9514 70.3803 20.9492 70.4304 20.9455C70.9025 20.9107 71.3136 20.7182 71.6521 20.3725C71.9957 20.0202 72.1613 19.6069 72.1438 19.1435C72.1271 18.6874 71.9463 18.2792 71.6056 17.9305L67.4735 13.7635ZM55.6248 3.88031C55.0023 3.88031 54.5585 4.0401 54.3058 4.35388C54.0632 4.65531 53.9404 4.97489 53.9404 5.30392V13.8863C53.9404 14.5509 53.8954 15.1472 53.8075 15.6578C53.7225 16.1496 53.5635 16.5694 53.3332 16.9049C53.1073 17.234 52.7979 17.4904 52.4122 17.6661C52.0193 17.8463 51.5072 17.9371 50.8906 17.9371C50.2594 17.9371 49.7364 17.8426 49.3362 17.6553C48.9432 17.4722 48.6302 17.2086 48.4043 16.8715C48.1719 16.5258 48.0041 16.1002 47.9046 15.6055C47.8022 15.0971 47.7506 14.5189 47.7506 13.8863V5.30392C47.7506 4.9393 47.617 4.60809 47.3533 4.32047C47.086 4.02848 46.6531 3.88031 46.0662 3.88031C45.4765 3.88031 45.0421 4.03792 44.7741 4.34879C44.5141 4.65167 44.3819 4.97271 44.3819 5.30392V15.3244C44.3819 16.3014 44.5773 17.1599 44.9629 17.8768C45.3457 18.5879 45.8491 19.1885 46.4592 19.6614C47.0657 20.1313 47.763 20.4865 48.5321 20.7175C49.2962 20.9463 50.0821 21.0625 50.868 21.0625C51.6685 21.0625 52.4623 20.9463 53.2264 20.7175C53.9964 20.4865 54.6907 20.1262 55.2907 19.6476C55.8928 19.1668 56.3846 18.5624 56.7521 17.8499C57.1211 17.133 57.3084 16.2832 57.3084 15.3244V5.30392C57.3084 4.9393 57.1748 4.60809 56.9119 4.32047C56.6439 4.02848 56.211 3.88031 55.6248 3.88031ZM41.1366 12.7641C40.8003 12.3959 40.3696 12.0479 39.8568 11.7291C39.3542 11.4175 38.7513 11.1008 38.0664 10.7885C37.7926 10.6635 37.4839 10.5314 37.1418 10.3912C36.8142 10.2568 36.4982 10.0912 36.2026 9.89872C35.9128 9.71132 35.6673 9.4927 35.4712 9.24792C35.2903 9.02421 35.2024 8.76564 35.2024 8.45912C35.2024 8.27173 35.2431 8.07707 35.3223 7.88023C35.4029 7.68122 35.5155 7.49963 35.6564 7.34057C35.7973 7.18368 35.9709 7.05148 36.1728 6.94835C36.5498 6.75441 37.0699 6.75659 37.5449 6.90404C37.7817 6.9774 38.0076 7.06674 38.216 7.16988C38.4259 7.27302 38.6271 7.38923 38.8152 7.51561C39.0092 7.64563 39.1813 7.76475 39.3142 7.85772C39.4486 7.97538 39.6193 8.05455 39.8219 8.09232C40.0151 8.12864 40.2142 8.12356 40.4146 8.07925C40.6115 8.03567 40.8018 7.95577 40.9797 7.84319C41.1642 7.72625 41.3204 7.56646 41.4467 7.36308C41.677 6.96432 41.7082 6.53797 41.5412 6.0949C41.3843 5.68162 41.0879 5.29593 40.6601 4.94802C40.2439 4.61027 39.7166 4.32555 39.092 4.10184C38.4695 3.87885 37.7846 3.75756 37.0568 3.74158L36.9072 3.7394C36.3043 3.7394 35.7043 3.82946 35.1226 4.00596C34.4892 4.19771 33.9147 4.49043 33.4135 4.87539C32.908 5.26325 32.4954 5.75933 32.1874 6.34984C31.878 6.94399 31.7204 7.63764 31.7204 8.41191C31.7204 9.13825 31.8497 9.77887 32.1046 10.3164C32.3567 10.8495 32.7009 11.3173 33.128 11.7058C33.5493 12.0893 34.0498 12.4249 34.6156 12.7024C35.1683 12.974 35.7733 13.2304 36.4183 13.4657C36.637 13.5413 36.8832 13.6466 37.1512 13.7803C37.412 13.9103 37.656 14.0751 37.8746 14.2705C38.0911 14.4637 38.2785 14.6925 38.4332 14.9511C38.5784 15.193 38.6518 15.4828 38.6518 15.8118C38.6518 16.1648 38.5893 16.4815 38.4673 16.7531C38.3446 17.0255 38.1797 17.2543 37.977 17.4337C37.7715 17.6168 37.5311 17.7591 37.2631 17.8572C36.6609 18.0802 36.0152 18.0337 35.4915 17.8768C35.1959 17.7882 34.9112 17.672 34.6453 17.5318C34.3773 17.3909 34.1188 17.2325 33.8769 17.0604C33.627 16.8817 33.3881 16.7146 33.1578 16.557C32.8593 16.3602 32.5361 16.281 32.1889 16.3268C31.8308 16.3747 31.5243 16.5984 31.2853 16.9827C31.1393 17.1889 31.0609 17.4403 31.0529 17.7301C31.0435 18.0068 31.0987 18.2944 31.2156 18.585C31.3304 18.8704 31.5156 19.1544 31.7669 19.4282C32.0175 19.7013 32.3538 19.9468 32.7641 20.156C33.2087 20.3921 33.7418 20.6122 34.349 20.8083C34.8814 20.9811 35.4538 21.069 36.0494 21.069C36.1438 21.069 36.2397 21.0668 36.3334 21.0618C38.2385 20.9993 39.681 20.4742 40.6224 19.5023C41.5637 18.5305 42.0561 17.2354 42.0881 15.6556C42.1034 15.0601 42.0351 14.5204 41.8847 14.0504C41.7322 13.574 41.4802 13.1418 41.1366 12.7641ZM12.081 20.5206V16.4437H14.6769C15.1062 16.4437 15.4541 16.0551 15.4541 15.575C15.4541 15.0956 15.1062 14.7071 14.6769 14.7071H12.0738L12.0643 13.2725H17.2213C17.6506 13.2725 17.9985 12.884 17.9985 12.4046C17.9985 11.9245 17.6506 11.5359 17.2213 11.5359H12.0534L12.0447 10.1479H14.6769C15.1062 10.1479 15.4541 9.75854 15.4541 9.27915C15.4541 8.79905 15.1062 8.41046 14.6769 8.41046H12.0338L12.0091 4.45847L22.8591 12.4394L12.081 20.5206ZM11.46 0.751981C11.062 0.457089 10.5347 0.417867 10.0974 0.651021C9.66015 0.879816 9.3856 1.34177 9.3856 1.84802L9.38705 8.41046H4.60704C4.17777 8.41046 3.82986 8.79905 3.82986 9.27915C3.82986 9.75854 4.17777 10.1479 4.60704 10.1479H9.38705L9.38777 11.5359H1.63851C1.20924 11.5359 0.861328 11.9245 0.861328 12.4046C0.861328 12.884 1.20924 13.2725 1.63851 13.2725H9.38777V14.7071H4.60704C4.17777 14.7071 3.82986 15.0956 3.82986 15.575C3.82986 16.0551 4.17777 16.4437 4.60704 16.4437H9.3885L9.38995 23.0396C9.38995 23.5458 9.66451 24.0034 10.1018 24.2366C10.2899 24.3383 10.4962 24.3869 10.7017 24.3869C10.9719 24.3869 11.2377 24.3034 11.4644 24.1356L25.877 13.5536C26.2199 13.3023 26.4261 12.8927 26.4261 12.4612C26.4174 12.0167 26.2155 11.6078 25.8727 11.3565L11.46 0.751981Z" fill="#FEFEFE"/>
</svg>
